<svg id="visual" viewBox="0 0 900 110" width="900" height="110" xmlns="http://www.w3.org/2000/svg" xmlns:xlink="http://www.w3.org/1999/xlink" version="1.1"><path d="M0 75L9.3 71C18.7 67 37.3 59 56.2 56.3C75 53.7 94 56.3 112.8 59.8C131.7 63.3 150.3 67.7 169 72.3C187.7 77 206.3 82 225 81.2C243.7 80.3 262.3 73.7 281.2 71.3C300 69 319 71 337.8 69.7C356.7 68.3 375.3 63.7 394 64.5C412.7 65.3 431.3 71.7 450 72.7C468.7 73.7 487.3 69.3 506.2 65.5C525 61.7 544 58.3 562.8 55.8C581.7 53.3 600.3 51.7 619 55C637.7 58.3 656.3 66.7 675 70.5C693.7 74.3 712.3 73.7 731.2 71.8C750 70 769 67 787.8 63.2C806.7 59.3 825.3 54.7 844 54.8C862.7 55 881.3 60 890.7 62.5L900 65L900 0L890.7 0C881.3 0 862.7 0 844 0C825.3 0 806.7 0 787.8 0C769 0 750 0 731.2 0C712.3 0 693.7 0 675 0C656.3 0 637.7 0 619 0C600.3 0 581.7 0 562.8 0C544 0 525 0 506.2 0C487.3 0 468.7 0 450 0C431.3 0 412.7 0 394 0C375.3 0 356.7 0 337.8 0C319 0 300 0 281.2 0C262.3 0 243.7 0 225 0C206.3 0 187.7 0 169 0C150.3 0 131.7 0 112.8 0C94 0 75 0 56.2 0C37.3 0 18.7 0 9.3 0L0 0Z" fill="#19503a"></path><path d="M0 30L9.3 32C18.7 34 37.3 38 56.2 39.5C75 41 94 40 112.8 43.3C131.7 46.7 150.3 54.3 169 55.3C187.7 56.3 206.3 50.7 225 50C243.7 49.3 262.3 53.7 281.2 51.5C300 49.3 319 40.7 337.8 36.2C356.7 31.7 375.3 31.3 394 32.3C412.7 33.3 431.3 35.7 450 40.8C468.7 46 487.3 54 506.2 54.2C525 54.3 544 46.7 562.8 44.8C581.7 43 600.3 47 619 45.8C637.7 44.7 656.3 38.3 675 37.7C693.7 37 712.3 42 731.2 45.7C750 49.3 769 51.7 787.8 52.8C806.7 54 825.3 54 844 55.2C862.7 56.3 881.3 58.7 890.7 59.8L900 61L900 0L890.7 0C881.3 0 862.7 0 844 0C825.3 0 806.7 0 787.8 0C769 0 750 0 731.2 0C712.3 0 693.7 0 675 0C656.3 0 637.7 0 619 0C600.3 0 581.7 0 562.8 0C544 0 525 0 506.2 0C487.3 0 468.7 0 450 0C431.3 0 412.7 0 394 0C375.3 0 356.7 0 337.8 0C319 0 300 0 281.2 0C262.3 0 243.7 0 225 0C206.3 0 187.7 0 169 0C150.3 0 131.7 0 112.8 0C94 0 75 0 56.2 0C37.3 0 18.7 0 9.3 0L0 0Z" fill="#0d4031"></path><path d="M0 28L9.3 29C18.7 30 37.3 32 56.2 30C75 28 94 22 112.8 21C131.7 20 150.3 24 169 28C187.7 32 206.3 36 225 34.3C243.7 32.7 262.3 25.3 281.2 21C300 16.7 319 15.3 337.8 15.7C356.7 16 375.3 18 394 18.3C412.7 18.7 431.3 17.3 450 17.8C468.7 18.3 487.3 20.7 506.2 20.2C525 19.7 544 16.3 562.8 18.5C581.7 20.7 600.3 28.3 619 29C637.7 29.7 656.3 23.3 675 19.5C693.7 15.7 712.3 14.3 731.2 15.2C750 16 769 19 787.8 19.2C806.7 19.3 825.3 16.7 844 17.7C862.7 18.7 881.3 23.3 890.7 25.7L900 28L900 0L890.7 0C881.3 0 862.7 0 844 0C825.3 0 806.7 0 787.8 0C769 0 750 0 731.2 0C712.3 0 693.7 0 675 0C656.3 0 637.7 0 619 0C600.3 0 581.7 0 562.8 0C544 0 525 0 506.2 0C487.3 0 468.7 0 450 0C431.3 0 412.7 0 394 0C375.3 0 356.7 0 337.8 0C319 0 300 0 281.2 0C262.3 0 243.7 0 225 0C206.3 0 187.7 0 169 0C150.3 0 131.7 0 112.8 0C94 0 75 0 56.2 0C37.3 0 18.7 0 9.3 0L0 0Z" fill="#053127"></path></svg>